<?xml version="1.0" encoding="utf-8" standalone="no"?>
<!DOCTYPE svg PUBLIC "-//W3C//DTD SVG 1.1//EN"
  "http://www.w3.org/Graphics/SVG/1.1/DTD/svg11.dtd">
<svg height="720.72pt" version="1.1" viewBox="0 0 1382.4 720.72" width="1382.4pt" xmlns="http://www.w3.org/2000/svg" xmlns:xlink="http://www.w3.org/1999/xlink">
 <metadata>
  <rdf:RDF xmlns:cc="http://creativecommons.org/ns#" xmlns:dc="http://purl.org/dc/elements/1.1/" xmlns:rdf="http://www.w3.org/1999/02/22-rdf-syntax-ns#">
   <cc:Work>
    <dc:type rdf:resource="http://purl.org/dc/dcmitype/StillImage"/>
    <dc:date>2021-04-11T23:19:16.643152</dc:date>
    <dc:format>image/svg+xml</dc:format>
    <dc:creator>
     <cc:Agent>
      <dc:title>Matplotlib v3.4.1, https://matplotlib.org/</dc:title>
     </cc:Agent>
    </dc:creator>
   </cc:Work>
  </rdf:RDF>
 </metadata>
 <defs>
  <style type="text/css">*{stroke-linecap:butt;stroke-linejoin:round;}</style>
 </defs>
 <g id="figure_1">
  <g id="patch_1">
   <path d="M 0 720.72 
L 1382.4 720.72 
L 1382.4 0 
L 0 0 
z
" style="fill:#ffffff;"/>
  </g>
  <g id="axes_1">
   <g id="patch_2">
    <path d="M 172.8 641.4408 
L 1244.16 641.4408 
L 1244.16 86.4864 
L 172.8 86.4864 
z
" style="fill:#ffffff;"/>
   </g>
   <g id="matplotlib.axis_1">
    <g id="xtick_1">
     <g id="line2d_1">
      <defs>
       <path d="M 0 0 
L 0 3.5 
" id="m4f1dd3f326" style="stroke:#000000;stroke-width:0.8;"/>
      </defs>
      <g>
       <use style="stroke:#000000;stroke-width:0.8;" x="301.3632" xlink:href="#m4f1dd3f326" y="641.4408"/>
      </g>
     </g>
     <g id="text_1">
      <!-- 0.3 -->
      <g transform="translate(293.411637 656.039238)scale(0.1 -0.1)">
       <defs>
        <path d="M 2034 4250 
Q 1547 4250 1301 3770 
Q 1056 3291 1056 2328 
Q 1056 1369 1301 889 
Q 1547 409 2034 409 
Q 2525 409 2770 889 
Q 3016 1369 3016 2328 
Q 3016 3291 2770 3770 
Q 2525 4250 2034 4250 
z
M 2034 4750 
Q 2819 4750 3233 4129 
Q 3647 3509 3647 2328 
Q 3647 1150 3233 529 
Q 2819 -91 2034 -91 
Q 1250 -91 836 529 
Q 422 1150 422 2328 
Q 422 3509 836 4129 
Q 1250 4750 2034 4750 
z
" id="DejaVuSans-30" transform="scale(0.015625)"/>
        <path d="M 684 794 
L 1344 794 
L 1344 0 
L 684 0 
L 684 794 
z
" id="DejaVuSans-2e" transform="scale(0.015625)"/>
        <path d="M 2597 2516 
Q 3050 2419 3304 2112 
Q 3559 1806 3559 1356 
Q 3559 666 3084 287 
Q 2609 -91 1734 -91 
Q 1441 -91 1130 -33 
Q 819 25 488 141 
L 488 750 
Q 750 597 1062 519 
Q 1375 441 1716 441 
Q 2309 441 2620 675 
Q 2931 909 2931 1356 
Q 2931 1769 2642 2001 
Q 2353 2234 1838 2234 
L 1294 2234 
L 1294 2753 
L 1863 2753 
Q 2328 2753 2575 2939 
Q 2822 3125 2822 3475 
Q 2822 3834 2567 4026 
Q 2313 4219 1838 4219 
Q 1578 4219 1281 4162 
Q 984 4106 628 3988 
L 628 4550 
Q 988 4650 1302 4700 
Q 1616 4750 1894 4750 
Q 2613 4750 3031 4423 
Q 3450 4097 3450 3541 
Q 3450 3153 3228 2886 
Q 3006 2619 2597 2516 
z
" id="DejaVuSans-33" transform="scale(0.015625)"/>
       </defs>
       <use xlink:href="#DejaVuSans-30"/>
       <use x="63.623047" xlink:href="#DejaVuSans-2e"/>
       <use x="95.410156" xlink:href="#DejaVuSans-33"/>
      </g>
     </g>
    </g>
    <g id="xtick_2">
     <g id="line2d_2">
      <g>
       <use style="stroke:#000000;stroke-width:0.8;" x="558.4896" xlink:href="#m4f1dd3f326" y="641.4408"/>
      </g>
     </g>
     <g id="text_2">
      <!-- 0.6 -->
      <g transform="translate(550.538037 656.039238)scale(0.1 -0.1)">
       <defs>
        <path d="M 2113 2584 
Q 1688 2584 1439 2293 
Q 1191 2003 1191 1497 
Q 1191 994 1439 701 
Q 1688 409 2113 409 
Q 2538 409 2786 701 
Q 3034 994 3034 1497 
Q 3034 2003 2786 2293 
Q 2538 2584 2113 2584 
z
M 3366 4563 
L 3366 3988 
Q 3128 4100 2886 4159 
Q 2644 4219 2406 4219 
Q 1781 4219 1451 3797 
Q 1122 3375 1075 2522 
Q 1259 2794 1537 2939 
Q 1816 3084 2150 3084 
Q 2853 3084 3261 2657 
Q 3669 2231 3669 1497 
Q 3669 778 3244 343 
Q 2819 -91 2113 -91 
Q 1303 -91 875 529 
Q 447 1150 447 2328 
Q 447 3434 972 4092 
Q 1497 4750 2381 4750 
Q 2619 4750 2861 4703 
Q 3103 4656 3366 4563 
z
" id="DejaVuSans-36" transform="scale(0.015625)"/>
       </defs>
       <use xlink:href="#DejaVuSans-30"/>
       <use x="63.623047" xlink:href="#DejaVuSans-2e"/>
       <use x="95.410156" xlink:href="#DejaVuSans-36"/>
      </g>
     </g>
    </g>
    <g id="xtick_3">
     <g id="line2d_3">
      <g>
       <use style="stroke:#000000;stroke-width:0.8;" x="687.0528" xlink:href="#m4f1dd3f326" y="641.4408"/>
      </g>
     </g>
     <g id="text_3">
      <!-- 1 -->
      <g transform="translate(683.87155 656.039238)scale(0.1 -0.1)">
       <defs>
        <path d="M 794 531 
L 1825 531 
L 1825 4091 
L 703 3866 
L 703 4441 
L 1819 4666 
L 2450 4666 
L 2450 531 
L 3481 531 
L 3481 0 
L 794 0 
L 794 531 
z
" id="DejaVuSans-31" transform="scale(0.015625)"/>
       </defs>
       <use xlink:href="#DejaVuSans-31"/>
      </g>
     </g>
    </g>
    <g id="xtick_4">
     <g id="line2d_4">
      <g>
       <use style="stroke:#000000;stroke-width:0.8;" x="815.616" xlink:href="#m4f1dd3f326" y="641.4408"/>
      </g>
     </g>
     <g id="text_4">
      <!-- 2 -->
      <g transform="translate(812.43475 656.039238)scale(0.1 -0.1)">
       <defs>
        <path d="M 1228 531 
L 3431 531 
L 3431 0 
L 469 0 
L 469 531 
Q 828 903 1448 1529 
Q 2069 2156 2228 2338 
Q 2531 2678 2651 2914 
Q 2772 3150 2772 3378 
Q 2772 3750 2511 3984 
Q 2250 4219 1831 4219 
Q 1534 4219 1204 4116 
Q 875 4013 500 3803 
L 500 4441 
Q 881 4594 1212 4672 
Q 1544 4750 1819 4750 
Q 2544 4750 2975 4387 
Q 3406 4025 3406 3419 
Q 3406 3131 3298 2873 
Q 3191 2616 2906 2266 
Q 2828 2175 2409 1742 
Q 1991 1309 1228 531 
z
" id="DejaVuSans-32" transform="scale(0.015625)"/>
       </defs>
       <use xlink:href="#DejaVuSans-32"/>
      </g>
     </g>
    </g>
    <g id="xtick_5">
     <g id="line2d_5">
      <g>
       <use style="stroke:#000000;stroke-width:0.8;" x="1072.7424" xlink:href="#m4f1dd3f326" y="641.4408"/>
      </g>
     </g>
     <g id="text_5">
      <!-- 3 -->
      <g transform="translate(1069.56115 656.039238)scale(0.1 -0.1)">
       <use xlink:href="#DejaVuSans-33"/>
      </g>
     </g>
    </g>
    <g id="text_6">
     <!-- Factor of Iron solubility -->
     <g transform="translate(605.837812 675.796113)scale(0.18 -0.18)">
      <defs>
       <path d="M 628 4666 
L 3309 4666 
L 3309 4134 
L 1259 4134 
L 1259 2759 
L 3109 2759 
L 3109 2228 
L 1259 2228 
L 1259 0 
L 628 0 
L 628 4666 
z
" id="DejaVuSans-46" transform="scale(0.015625)"/>
       <path d="M 2194 1759 
Q 1497 1759 1228 1600 
Q 959 1441 959 1056 
Q 959 750 1161 570 
Q 1363 391 1709 391 
Q 2188 391 2477 730 
Q 2766 1069 2766 1631 
L 2766 1759 
L 2194 1759 
z
M 3341 1997 
L 3341 0 
L 2766 0 
L 2766 531 
Q 2569 213 2275 61 
Q 1981 -91 1556 -91 
Q 1019 -91 701 211 
Q 384 513 384 1019 
Q 384 1609 779 1909 
Q 1175 2209 1959 2209 
L 2766 2209 
L 2766 2266 
Q 2766 2663 2505 2880 
Q 2244 3097 1772 3097 
Q 1472 3097 1187 3025 
Q 903 2953 641 2809 
L 641 3341 
Q 956 3463 1253 3523 
Q 1550 3584 1831 3584 
Q 2591 3584 2966 3190 
Q 3341 2797 3341 1997 
z
" id="DejaVuSans-61" transform="scale(0.015625)"/>
       <path d="M 3122 3366 
L 3122 2828 
Q 2878 2963 2633 3030 
Q 2388 3097 2138 3097 
Q 1578 3097 1268 2742 
Q 959 2388 959 1747 
Q 959 1106 1268 751 
Q 1578 397 2138 397 
Q 2388 397 2633 464 
Q 2878 531 3122 666 
L 3122 134 
Q 2881 22 2623 -34 
Q 2366 -91 2075 -91 
Q 1284 -91 818 406 
Q 353 903 353 1747 
Q 353 2603 823 3093 
Q 1294 3584 2113 3584 
Q 2378 3584 2631 3529 
Q 2884 3475 3122 3366 
z
" id="DejaVuSans-63" transform="scale(0.015625)"/>
       <path d="M 1172 4494 
L 1172 3500 
L 2356 3500 
L 2356 3053 
L 1172 3053 
L 1172 1153 
Q 1172 725 1289 603 
Q 1406 481 1766 481 
L 2356 481 
L 2356 0 
L 1766 0 
Q 1100 0 847 248 
Q 594 497 594 1153 
L 594 3053 
L 172 3053 
L 172 3500 
L 594 3500 
L 594 4494 
L 1172 4494 
z
" id="DejaVuSans-74" transform="scale(0.015625)"/>
       <path d="M 1959 3097 
Q 1497 3097 1228 2736 
Q 959 2375 959 1747 
Q 959 1119 1226 758 
Q 1494 397 1959 397 
Q 2419 397 2687 759 
Q 2956 1122 2956 1747 
Q 2956 2369 2687 2733 
Q 2419 3097 1959 3097 
z
M 1959 3584 
Q 2709 3584 3137 3096 
Q 3566 2609 3566 1747 
Q 3566 888 3137 398 
Q 2709 -91 1959 -91 
Q 1206 -91 779 398 
Q 353 888 353 1747 
Q 353 2609 779 3096 
Q 1206 3584 1959 3584 
z
" id="DejaVuSans-6f" transform="scale(0.015625)"/>
       <path d="M 2631 2963 
Q 2534 3019 2420 3045 
Q 2306 3072 2169 3072 
Q 1681 3072 1420 2755 
Q 1159 2438 1159 1844 
L 1159 0 
L 581 0 
L 581 3500 
L 1159 3500 
L 1159 2956 
Q 1341 3275 1631 3429 
Q 1922 3584 2338 3584 
Q 2397 3584 2469 3576 
Q 2541 3569 2628 3553 
L 2631 2963 
z
" id="DejaVuSans-72" transform="scale(0.015625)"/>
       <path id="DejaVuSans-20" transform="scale(0.015625)"/>
       <path d="M 2375 4863 
L 2375 4384 
L 1825 4384 
Q 1516 4384 1395 4259 
Q 1275 4134 1275 3809 
L 1275 3500 
L 2222 3500 
L 2222 3053 
L 1275 3053 
L 1275 0 
L 697 0 
L 697 3053 
L 147 3053 
L 147 3500 
L 697 3500 
L 697 3744 
Q 697 4328 969 4595 
Q 1241 4863 1831 4863 
L 2375 4863 
z
" id="DejaVuSans-66" transform="scale(0.015625)"/>
       <path d="M 628 4666 
L 1259 4666 
L 1259 0 
L 628 0 
L 628 4666 
z
" id="DejaVuSans-49" transform="scale(0.015625)"/>
       <path d="M 3513 2113 
L 3513 0 
L 2938 0 
L 2938 2094 
Q 2938 2591 2744 2837 
Q 2550 3084 2163 3084 
Q 1697 3084 1428 2787 
Q 1159 2491 1159 1978 
L 1159 0 
L 581 0 
L 581 3500 
L 1159 3500 
L 1159 2956 
Q 1366 3272 1645 3428 
Q 1925 3584 2291 3584 
Q 2894 3584 3203 3211 
Q 3513 2838 3513 2113 
z
" id="DejaVuSans-6e" transform="scale(0.015625)"/>
       <path d="M 2834 3397 
L 2834 2853 
Q 2591 2978 2328 3040 
Q 2066 3103 1784 3103 
Q 1356 3103 1142 2972 
Q 928 2841 928 2578 
Q 928 2378 1081 2264 
Q 1234 2150 1697 2047 
L 1894 2003 
Q 2506 1872 2764 1633 
Q 3022 1394 3022 966 
Q 3022 478 2636 193 
Q 2250 -91 1575 -91 
Q 1294 -91 989 -36 
Q 684 19 347 128 
L 347 722 
Q 666 556 975 473 
Q 1284 391 1588 391 
Q 1994 391 2212 530 
Q 2431 669 2431 922 
Q 2431 1156 2273 1281 
Q 2116 1406 1581 1522 
L 1381 1569 
Q 847 1681 609 1914 
Q 372 2147 372 2553 
Q 372 3047 722 3315 
Q 1072 3584 1716 3584 
Q 2034 3584 2315 3537 
Q 2597 3491 2834 3397 
z
" id="DejaVuSans-73" transform="scale(0.015625)"/>
       <path d="M 603 4863 
L 1178 4863 
L 1178 0 
L 603 0 
L 603 4863 
z
" id="DejaVuSans-6c" transform="scale(0.015625)"/>
       <path d="M 544 1381 
L 544 3500 
L 1119 3500 
L 1119 1403 
Q 1119 906 1312 657 
Q 1506 409 1894 409 
Q 2359 409 2629 706 
Q 2900 1003 2900 1516 
L 2900 3500 
L 3475 3500 
L 3475 0 
L 2900 0 
L 2900 538 
Q 2691 219 2414 64 
Q 2138 -91 1772 -91 
Q 1169 -91 856 284 
Q 544 659 544 1381 
z
M 1991 3584 
L 1991 3584 
z
" id="DejaVuSans-75" transform="scale(0.015625)"/>
       <path d="M 3116 1747 
Q 3116 2381 2855 2742 
Q 2594 3103 2138 3103 
Q 1681 3103 1420 2742 
Q 1159 2381 1159 1747 
Q 1159 1113 1420 752 
Q 1681 391 2138 391 
Q 2594 391 2855 752 
Q 3116 1113 3116 1747 
z
M 1159 2969 
Q 1341 3281 1617 3432 
Q 1894 3584 2278 3584 
Q 2916 3584 3314 3078 
Q 3713 2572 3713 1747 
Q 3713 922 3314 415 
Q 2916 -91 2278 -91 
Q 1894 -91 1617 61 
Q 1341 213 1159 525 
L 1159 0 
L 581 0 
L 581 4863 
L 1159 4863 
L 1159 2969 
z
" id="DejaVuSans-62" transform="scale(0.015625)"/>
       <path d="M 603 3500 
L 1178 3500 
L 1178 0 
L 603 0 
L 603 3500 
z
M 603 4863 
L 1178 4863 
L 1178 4134 
L 603 4134 
L 603 4863 
z
" id="DejaVuSans-69" transform="scale(0.015625)"/>
       <path d="M 2059 -325 
Q 1816 -950 1584 -1140 
Q 1353 -1331 966 -1331 
L 506 -1331 
L 506 -850 
L 844 -850 
Q 1081 -850 1212 -737 
Q 1344 -625 1503 -206 
L 1606 56 
L 191 3500 
L 800 3500 
L 1894 763 
L 2988 3500 
L 3597 3500 
L 2059 -325 
z
" id="DejaVuSans-79" transform="scale(0.015625)"/>
      </defs>
      <use xlink:href="#DejaVuSans-46"/>
      <use x="48.394531" xlink:href="#DejaVuSans-61"/>
      <use x="109.673828" xlink:href="#DejaVuSans-63"/>
      <use x="164.654297" xlink:href="#DejaVuSans-74"/>
      <use x="203.863281" xlink:href="#DejaVuSans-6f"/>
      <use x="265.044922" xlink:href="#DejaVuSans-72"/>
      <use x="306.158203" xlink:href="#DejaVuSans-20"/>
      <use x="337.945312" xlink:href="#DejaVuSans-6f"/>
      <use x="399.126953" xlink:href="#DejaVuSans-66"/>
      <use x="434.332031" xlink:href="#DejaVuSans-20"/>
      <use x="466.119141" xlink:href="#DejaVuSans-49"/>
      <use x="495.611328" xlink:href="#DejaVuSans-72"/>
      <use x="534.474609" xlink:href="#DejaVuSans-6f"/>
      <use x="595.65625" xlink:href="#DejaVuSans-6e"/>
      <use x="659.035156" xlink:href="#DejaVuSans-20"/>
      <use x="690.822266" xlink:href="#DejaVuSans-73"/>
      <use x="742.921875" xlink:href="#DejaVuSans-6f"/>
      <use x="804.103516" xlink:href="#DejaVuSans-6c"/>
      <use x="831.886719" xlink:href="#DejaVuSans-75"/>
      <use x="895.265625" xlink:href="#DejaVuSans-62"/>
      <use x="958.742188" xlink:href="#DejaVuSans-69"/>
      <use x="986.525391" xlink:href="#DejaVuSans-6c"/>
      <use x="1014.308594" xlink:href="#DejaVuSans-69"/>
      <use x="1042.091797" xlink:href="#DejaVuSans-74"/>
      <use x="1081.300781" xlink:href="#DejaVuSans-79"/>
     </g>
    </g>
   </g>
   <g id="matplotlib.axis_2">
    <g id="ytick_1">
     <g id="line2d_6">
      <defs>
       <path d="M 0 0 
L -3.5 0 
" id="maa9423b783" style="stroke:#000000;stroke-width:0.8;"/>
      </defs>
      <g>
       <use style="stroke:#000000;stroke-width:0.8;" x="172.8" xlink:href="#maa9423b783" y="623.067133"/>
      </g>
     </g>
     <g id="text_7">
      <!-- 265.0 -->
      <g transform="translate(137.171875 626.866351)scale(0.1 -0.1)">
       <defs>
        <path d="M 691 4666 
L 3169 4666 
L 3169 4134 
L 1269 4134 
L 1269 2991 
Q 1406 3038 1543 3061 
Q 1681 3084 1819 3084 
Q 2600 3084 3056 2656 
Q 3513 2228 3513 1497 
Q 3513 744 3044 326 
Q 2575 -91 1722 -91 
Q 1428 -91 1123 -41 
Q 819 9 494 109 
L 494 744 
Q 775 591 1075 516 
Q 1375 441 1709 441 
Q 2250 441 2565 725 
Q 2881 1009 2881 1497 
Q 2881 1984 2565 2268 
Q 2250 2553 1709 2553 
Q 1456 2553 1204 2497 
Q 953 2441 691 2322 
L 691 4666 
z
" id="DejaVuSans-35" transform="scale(0.015625)"/>
       </defs>
       <use xlink:href="#DejaVuSans-32"/>
       <use x="63.623047" xlink:href="#DejaVuSans-36"/>
       <use x="127.246094" xlink:href="#DejaVuSans-35"/>
       <use x="190.869141" xlink:href="#DejaVuSans-2e"/>
       <use x="222.65625" xlink:href="#DejaVuSans-30"/>
      </g>
     </g>
    </g>
    <g id="ytick_2">
     <g id="line2d_7">
      <g>
       <use style="stroke:#000000;stroke-width:0.8;" x="172.8" xlink:href="#maa9423b783" y="552.578115"/>
      </g>
     </g>
     <g id="text_8">
      <!-- 267.5 -->
      <g transform="translate(137.171875 556.377333)scale(0.1 -0.1)">
       <defs>
        <path d="M 525 4666 
L 3525 4666 
L 3525 4397 
L 1831 0 
L 1172 0 
L 2766 4134 
L 525 4134 
L 525 4666 
z
" id="DejaVuSans-37" transform="scale(0.015625)"/>
       </defs>
       <use xlink:href="#DejaVuSans-32"/>
       <use x="63.623047" xlink:href="#DejaVuSans-36"/>
       <use x="127.246094" xlink:href="#DejaVuSans-37"/>
       <use x="190.869141" xlink:href="#DejaVuSans-2e"/>
       <use x="222.65625" xlink:href="#DejaVuSans-35"/>
      </g>
     </g>
    </g>
    <g id="ytick_3">
     <g id="line2d_8">
      <g>
       <use style="stroke:#000000;stroke-width:0.8;" x="172.8" xlink:href="#maa9423b783" y="482.089096"/>
      </g>
     </g>
     <g id="text_9">
      <!-- 270.0 -->
      <g transform="translate(137.171875 485.888315)scale(0.1 -0.1)">
       <use xlink:href="#DejaVuSans-32"/>
       <use x="63.623047" xlink:href="#DejaVuSans-37"/>
       <use x="127.246094" xlink:href="#DejaVuSans-30"/>
       <use x="190.869141" xlink:href="#DejaVuSans-2e"/>
       <use x="222.65625" xlink:href="#DejaVuSans-30"/>
      </g>
     </g>
    </g>
    <g id="ytick_4">
     <g id="line2d_9">
      <g>
       <use style="stroke:#000000;stroke-width:0.8;" x="172.8" xlink:href="#maa9423b783" y="411.600078"/>
      </g>
     </g>
     <g id="text_10">
      <!-- 272.5 -->
      <g transform="translate(137.171875 415.399297)scale(0.1 -0.1)">
       <use xlink:href="#DejaVuSans-32"/>
       <use x="63.623047" xlink:href="#DejaVuSans-37"/>
       <use x="127.246094" xlink:href="#DejaVuSans-32"/>
       <use x="190.869141" xlink:href="#DejaVuSans-2e"/>
       <use x="222.65625" xlink:href="#DejaVuSans-35"/>
      </g>
     </g>
    </g>
    <g id="ytick_5">
     <g id="line2d_10">
      <g>
       <use style="stroke:#000000;stroke-width:0.8;" x="172.8" xlink:href="#maa9423b783" y="341.11106"/>
      </g>
     </g>
     <g id="text_11">
      <!-- 275.0 -->
      <g transform="translate(137.171875 344.910279)scale(0.1 -0.1)">
       <use xlink:href="#DejaVuSans-32"/>
       <use x="63.623047" xlink:href="#DejaVuSans-37"/>
       <use x="127.246094" xlink:href="#DejaVuSans-35"/>
       <use x="190.869141" xlink:href="#DejaVuSans-2e"/>
       <use x="222.65625" xlink:href="#DejaVuSans-30"/>
      </g>
     </g>
    </g>
    <g id="ytick_6">
     <g id="line2d_11">
      <g>
       <use style="stroke:#000000;stroke-width:0.8;" x="172.8" xlink:href="#maa9423b783" y="270.622042"/>
      </g>
     </g>
     <g id="text_12">
      <!-- 277.5 -->
      <g transform="translate(137.171875 274.421261)scale(0.1 -0.1)">
       <use xlink:href="#DejaVuSans-32"/>
       <use x="63.623047" xlink:href="#DejaVuSans-37"/>
       <use x="127.246094" xlink:href="#DejaVuSans-37"/>
       <use x="190.869141" xlink:href="#DejaVuSans-2e"/>
       <use x="222.65625" xlink:href="#DejaVuSans-35"/>
      </g>
     </g>
    </g>
    <g id="ytick_7">
     <g id="line2d_12">
      <g>
       <use style="stroke:#000000;stroke-width:0.8;" x="172.8" xlink:href="#maa9423b783" y="200.133024"/>
      </g>
     </g>
     <g id="text_13">
      <!-- 280.0 -->
      <g transform="translate(137.171875 203.932243)scale(0.1 -0.1)">
       <defs>
        <path d="M 2034 2216 
Q 1584 2216 1326 1975 
Q 1069 1734 1069 1313 
Q 1069 891 1326 650 
Q 1584 409 2034 409 
Q 2484 409 2743 651 
Q 3003 894 3003 1313 
Q 3003 1734 2745 1975 
Q 2488 2216 2034 2216 
z
M 1403 2484 
Q 997 2584 770 2862 
Q 544 3141 544 3541 
Q 544 4100 942 4425 
Q 1341 4750 2034 4750 
Q 2731 4750 3128 4425 
Q 3525 4100 3525 3541 
Q 3525 3141 3298 2862 
Q 3072 2584 2669 2484 
Q 3125 2378 3379 2068 
Q 3634 1759 3634 1313 
Q 3634 634 3220 271 
Q 2806 -91 2034 -91 
Q 1263 -91 848 271 
Q 434 634 434 1313 
Q 434 1759 690 2068 
Q 947 2378 1403 2484 
z
M 1172 3481 
Q 1172 3119 1398 2916 
Q 1625 2713 2034 2713 
Q 2441 2713 2670 2916 
Q 2900 3119 2900 3481 
Q 2900 3844 2670 4047 
Q 2441 4250 2034 4250 
Q 1625 4250 1398 4047 
Q 1172 3844 1172 3481 
z
" id="DejaVuSans-38" transform="scale(0.015625)"/>
       </defs>
       <use xlink:href="#DejaVuSans-32"/>
       <use x="63.623047" xlink:href="#DejaVuSans-38"/>
       <use x="127.246094" xlink:href="#DejaVuSans-30"/>
       <use x="190.869141" xlink:href="#DejaVuSans-2e"/>
       <use x="222.65625" xlink:href="#DejaVuSans-30"/>
      </g>
     </g>
    </g>
    <g id="ytick_8">
     <g id="line2d_13">
      <g>
       <use style="stroke:#000000;stroke-width:0.8;" x="172.8" xlink:href="#maa9423b783" y="129.644006"/>
      </g>
     </g>
     <g id="text_14">
      <!-- 282.5 -->
      <g transform="translate(137.171875 133.443225)scale(0.1 -0.1)">
       <use xlink:href="#DejaVuSans-32"/>
       <use x="63.623047" xlink:href="#DejaVuSans-38"/>
       <use x="127.246094" xlink:href="#DejaVuSans-32"/>
       <use x="190.869141" xlink:href="#DejaVuSans-2e"/>
       <use x="222.65625" xlink:href="#DejaVuSans-35"/>
      </g>
     </g>
    </g>
    <g id="text_15">
     <!-- Atmospheric CO2 [ppm] -->
     <g transform="translate(129.428437 472.589381)rotate(-90)scale(0.18 -0.18)">
      <defs>
       <path d="M 2188 4044 
L 1331 1722 
L 3047 1722 
L 2188 4044 
z
M 1831 4666 
L 2547 4666 
L 4325 0 
L 3669 0 
L 3244 1197 
L 1141 1197 
L 716 0 
L 50 0 
L 1831 4666 
z
" id="DejaVuSans-41" transform="scale(0.015625)"/>
       <path d="M 3328 2828 
Q 3544 3216 3844 3400 
Q 4144 3584 4550 3584 
Q 5097 3584 5394 3201 
Q 5691 2819 5691 2113 
L 5691 0 
L 5113 0 
L 5113 2094 
Q 5113 2597 4934 2840 
Q 4756 3084 4391 3084 
Q 3944 3084 3684 2787 
Q 3425 2491 3425 1978 
L 3425 0 
L 2847 0 
L 2847 2094 
Q 2847 2600 2669 2842 
Q 2491 3084 2119 3084 
Q 1678 3084 1418 2786 
Q 1159 2488 1159 1978 
L 1159 0 
L 581 0 
L 581 3500 
L 1159 3500 
L 1159 2956 
Q 1356 3278 1631 3431 
Q 1906 3584 2284 3584 
Q 2666 3584 2933 3390 
Q 3200 3197 3328 2828 
z
" id="DejaVuSans-6d" transform="scale(0.015625)"/>
       <path d="M 1159 525 
L 1159 -1331 
L 581 -1331 
L 581 3500 
L 1159 3500 
L 1159 2969 
Q 1341 3281 1617 3432 
Q 1894 3584 2278 3584 
Q 2916 3584 3314 3078 
Q 3713 2572 3713 1747 
Q 3713 922 3314 415 
Q 2916 -91 2278 -91 
Q 1894 -91 1617 61 
Q 1341 213 1159 525 
z
M 3116 1747 
Q 3116 2381 2855 2742 
Q 2594 3103 2138 3103 
Q 1681 3103 1420 2742 
Q 1159 2381 1159 1747 
Q 1159 1113 1420 752 
Q 1681 391 2138 391 
Q 2594 391 2855 752 
Q 3116 1113 3116 1747 
z
" id="DejaVuSans-70" transform="scale(0.015625)"/>
       <path d="M 3513 2113 
L 3513 0 
L 2938 0 
L 2938 2094 
Q 2938 2591 2744 2837 
Q 2550 3084 2163 3084 
Q 1697 3084 1428 2787 
Q 1159 2491 1159 1978 
L 1159 0 
L 581 0 
L 581 4863 
L 1159 4863 
L 1159 2956 
Q 1366 3272 1645 3428 
Q 1925 3584 2291 3584 
Q 2894 3584 3203 3211 
Q 3513 2838 3513 2113 
z
" id="DejaVuSans-68" transform="scale(0.015625)"/>
       <path d="M 3597 1894 
L 3597 1613 
L 953 1613 
Q 991 1019 1311 708 
Q 1631 397 2203 397 
Q 2534 397 2845 478 
Q 3156 559 3463 722 
L 3463 178 
Q 3153 47 2828 -22 
Q 2503 -91 2169 -91 
Q 1331 -91 842 396 
Q 353 884 353 1716 
Q 353 2575 817 3079 
Q 1281 3584 2069 3584 
Q 2775 3584 3186 3129 
Q 3597 2675 3597 1894 
z
M 3022 2063 
Q 3016 2534 2758 2815 
Q 2500 3097 2075 3097 
Q 1594 3097 1305 2825 
Q 1016 2553 972 2059 
L 3022 2063 
z
" id="DejaVuSans-65" transform="scale(0.015625)"/>
       <path d="M 4122 4306 
L 4122 3641 
Q 3803 3938 3442 4084 
Q 3081 4231 2675 4231 
Q 1875 4231 1450 3742 
Q 1025 3253 1025 2328 
Q 1025 1406 1450 917 
Q 1875 428 2675 428 
Q 3081 428 3442 575 
Q 3803 722 4122 1019 
L 4122 359 
Q 3791 134 3420 21 
Q 3050 -91 2638 -91 
Q 1578 -91 968 557 
Q 359 1206 359 2328 
Q 359 3453 968 4101 
Q 1578 4750 2638 4750 
Q 3056 4750 3426 4639 
Q 3797 4528 4122 4306 
z
" id="DejaVuSans-43" transform="scale(0.015625)"/>
       <path d="M 2522 4238 
Q 1834 4238 1429 3725 
Q 1025 3213 1025 2328 
Q 1025 1447 1429 934 
Q 1834 422 2522 422 
Q 3209 422 3611 934 
Q 4013 1447 4013 2328 
Q 4013 3213 3611 3725 
Q 3209 4238 2522 4238 
z
M 2522 4750 
Q 3503 4750 4090 4092 
Q 4678 3434 4678 2328 
Q 4678 1225 4090 567 
Q 3503 -91 2522 -91 
Q 1538 -91 948 565 
Q 359 1222 359 2328 
Q 359 3434 948 4092 
Q 1538 4750 2522 4750 
z
" id="DejaVuSans-4f" transform="scale(0.015625)"/>
       <path d="M 550 4863 
L 1875 4863 
L 1875 4416 
L 1125 4416 
L 1125 -397 
L 1875 -397 
L 1875 -844 
L 550 -844 
L 550 4863 
z
" id="DejaVuSans-5b" transform="scale(0.015625)"/>
       <path d="M 1947 4863 
L 1947 -844 
L 622 -844 
L 622 -397 
L 1369 -397 
L 1369 4416 
L 622 4416 
L 622 4863 
L 1947 4863 
z
" id="DejaVuSans-5d" transform="scale(0.015625)"/>
      </defs>
      <use xlink:href="#DejaVuSans-41"/>
      <use x="66.658203" xlink:href="#DejaVuSans-74"/>
      <use x="105.867188" xlink:href="#DejaVuSans-6d"/>
      <use x="203.279297" xlink:href="#DejaVuSans-6f"/>
      <use x="264.460938" xlink:href="#DejaVuSans-73"/>
      <use x="316.560547" xlink:href="#DejaVuSans-70"/>
      <use x="380.037109" xlink:href="#DejaVuSans-68"/>
      <use x="443.416016" xlink:href="#DejaVuSans-65"/>
      <use x="504.939453" xlink:href="#DejaVuSans-72"/>
      <use x="546.052734" xlink:href="#DejaVuSans-69"/>
      <use x="573.835938" xlink:href="#DejaVuSans-63"/>
      <use x="628.816406" xlink:href="#DejaVuSans-20"/>
      <use x="660.603516" xlink:href="#DejaVuSans-43"/>
      <use x="730.427734" xlink:href="#DejaVuSans-4f"/>
      <use x="809.138672" xlink:href="#DejaVuSans-32"/>
      <use x="872.761719" xlink:href="#DejaVuSans-20"/>
      <use x="904.548828" xlink:href="#DejaVuSans-5b"/>
      <use x="943.5625" xlink:href="#DejaVuSans-70"/>
      <use x="1007.039062" xlink:href="#DejaVuSans-70"/>
      <use x="1070.515625" xlink:href="#DejaVuSans-6d"/>
      <use x="1167.927734" xlink:href="#DejaVuSans-5d"/>
     </g>
    </g>
   </g>
   <g id="line2d_14">
    <path clip-path="url(#p081a3fe525)" d="M 215.6544 214.822936 
L 215.6544 218.657538 
" style="fill:none;stroke:#000000;stroke-linecap:square;"/>
   </g>
   <g id="line2d_15">
    <path clip-path="url(#p081a3fe525)" d="M 215.6544 207.978452 
L 215.6544 205.180038 
" style="fill:none;stroke:#000000;stroke-linecap:square;"/>
   </g>
   <g id="line2d_16">
    <path clip-path="url(#p081a3fe525)" d="M 207.08352 218.657538 
L 224.22528 218.657538 
" style="fill:none;stroke:#000000;stroke-linecap:square;"/>
   </g>
   <g id="line2d_17">
    <path clip-path="url(#p081a3fe525)" d="M 207.08352 205.180038 
L 224.22528 205.180038 
" style="fill:none;stroke:#000000;stroke-linecap:square;"/>
   </g>
   <g id="line2d_18"/>
   <g id="line2d_19">
    <path clip-path="url(#p081a3fe525)" d="M 472.7808 236.033081 
L 472.7808 237.915138 
" style="fill:none;stroke:#000000;stroke-linecap:square;"/>
   </g>
   <g id="line2d_20">
    <path clip-path="url(#p081a3fe525)" d="M 472.7808 232.691902 
L 472.7808 231.99406 
" style="fill:none;stroke:#000000;stroke-linecap:square;"/>
   </g>
   <g id="line2d_21">
    <path clip-path="url(#p081a3fe525)" d="M 464.20992 237.915138 
L 481.35168 237.915138 
" style="fill:none;stroke:#000000;stroke-linecap:square;"/>
   </g>
   <g id="line2d_22">
    <path clip-path="url(#p081a3fe525)" d="M 464.20992 231.99406 
L 481.35168 231.99406 
" style="fill:none;stroke:#000000;stroke-linecap:square;"/>
   </g>
   <g id="line2d_23"/>
   <g id="line2d_24">
    <path clip-path="url(#p081a3fe525)" d="M 729.9072 321.92395 
L 729.9072 324.644826 
" style="fill:none;stroke:#000000;stroke-linecap:square;"/>
   </g>
   <g id="line2d_25">
    <path clip-path="url(#p081a3fe525)" d="M 729.9072 313.422974 
L 729.9072 309.588371 
" style="fill:none;stroke:#000000;stroke-linecap:square;"/>
   </g>
   <g id="line2d_26">
    <path clip-path="url(#p081a3fe525)" d="M 721.33632 324.644826 
L 738.47808 324.644826 
" style="fill:none;stroke:#000000;stroke-linecap:square;"/>
   </g>
   <g id="line2d_27">
    <path clip-path="url(#p081a3fe525)" d="M 721.33632 309.588371 
L 738.47808 309.588371 
" style="fill:none;stroke:#000000;stroke-linecap:square;"/>
   </g>
   <g id="line2d_28"/>
   <g id="line2d_29">
    <path clip-path="url(#p081a3fe525)" d="M 987.0336 378.893174 
L 987.0336 384.081166 
" style="fill:none;stroke:#000000;stroke-linecap:square;"/>
   </g>
   <g id="line2d_30">
    <path clip-path="url(#p081a3fe525)" d="M 987.0336 362.603162 
L 987.0336 357.267143 
" style="fill:none;stroke:#000000;stroke-linecap:square;"/>
   </g>
   <g id="line2d_31">
    <path clip-path="url(#p081a3fe525)" d="M 978.46272 384.081166 
L 995.60448 384.081166 
" style="fill:none;stroke:#000000;stroke-linecap:square;"/>
   </g>
   <g id="line2d_32">
    <path clip-path="url(#p081a3fe525)" d="M 978.46272 357.267143 
L 995.60448 357.267143 
" style="fill:none;stroke:#000000;stroke-linecap:square;"/>
   </g>
   <g id="line2d_33"/>
   <g id="line2d_34">
    <path clip-path="url(#p081a3fe525)" d="M 258.5088 166.629594 
L 258.5088 169.709964 
" style="fill:none;stroke:#000000;stroke-linecap:square;"/>
   </g>
   <g id="line2d_35">
    <path clip-path="url(#p081a3fe525)" d="M 258.5088 155.478231 
L 258.5088 151.580189 
" style="fill:none;stroke:#000000;stroke-linecap:square;"/>
   </g>
   <g id="line2d_36">
    <path clip-path="url(#p081a3fe525)" d="M 249.93792 169.709964 
L 267.07968 169.709964 
" style="fill:none;stroke:#000000;stroke-linecap:square;"/>
   </g>
   <g id="line2d_37">
    <path clip-path="url(#p081a3fe525)" d="M 249.93792 151.580189 
L 267.07968 151.580189 
" style="fill:none;stroke:#000000;stroke-linecap:square;"/>
   </g>
   <g id="line2d_38">
    <defs>
     <path d="M 0 3 
C 0.795609 3 1.55874 2.683901 2.12132 2.12132 
C 2.683901 1.55874 3 0.795609 3 0 
C 3 -0.795609 2.683901 -1.55874 2.12132 -2.12132 
C 1.55874 -2.683901 0.795609 -3 0 -3 
C -0.795609 -3 -1.55874 -2.683901 -2.12132 -2.12132 
C -2.683901 -1.55874 -3 -0.795609 -3 0 
C -3 0.795609 -2.683901 1.55874 -2.12132 2.12132 
C -1.55874 2.683901 -0.795609 3 0 3 
z
" id="m098d92a74c" style="stroke:#000000;"/>
    </defs>
    <g clip-path="url(#p081a3fe525)">
     <use style="fill-opacity:0;stroke:#000000;" x="258.5088" xlink:href="#m098d92a74c" y="191.984494"/>
    </g>
   </g>
   <g id="line2d_39">
    <path clip-path="url(#p081a3fe525)" d="M 515.6352 212.701216 
L 515.6352 214.371806 
" style="fill:none;stroke:#000000;stroke-linecap:square;"/>
   </g>
   <g id="line2d_40">
    <path clip-path="url(#p081a3fe525)" d="M 515.6352 207.125535 
L 515.6352 204.954473 
" style="fill:none;stroke:#000000;stroke-linecap:square;"/>
   </g>
   <g id="line2d_41">
    <path clip-path="url(#p081a3fe525)" d="M 507.06432 214.371806 
L 524.20608 214.371806 
" style="fill:none;stroke:#000000;stroke-linecap:square;"/>
   </g>
   <g id="line2d_42">
    <path clip-path="url(#p081a3fe525)" d="M 507.06432 204.954473 
L 524.20608 204.954473 
" style="fill:none;stroke:#000000;stroke-linecap:square;"/>
   </g>
   <g id="line2d_43">
    <g clip-path="url(#p081a3fe525)">
     <use style="fill-opacity:0;stroke:#000000;" x="515.6352" xlink:href="#m098d92a74c" y="225.311701"/>
    </g>
   </g>
   <g id="line2d_44">
    <path clip-path="url(#p081a3fe525)" d="M 772.7616 389.388989 
L 772.7616 395.303017 
" style="fill:none;stroke:#000000;stroke-linecap:square;"/>
   </g>
   <g id="line2d_45">
    <path clip-path="url(#p081a3fe525)" d="M 772.7616 375.601337 
L 772.7616 372.18262 
" style="fill:none;stroke:#000000;stroke-linecap:square;"/>
   </g>
   <g id="line2d_46">
    <path clip-path="url(#p081a3fe525)" d="M 764.19072 395.303017 
L 781.33248 395.303017 
" style="fill:none;stroke:#000000;stroke-linecap:square;"/>
   </g>
   <g id="line2d_47">
    <path clip-path="url(#p081a3fe525)" d="M 764.19072 372.18262 
L 781.33248 372.18262 
" style="fill:none;stroke:#000000;stroke-linecap:square;"/>
   </g>
   <g id="line2d_48">
    <g clip-path="url(#p081a3fe525)">
     <use style="fill-opacity:0;stroke:#000000;" x="772.7616" xlink:href="#m098d92a74c" y="343.733252"/>
    </g>
   </g>
   <g id="line2d_49">
    <path clip-path="url(#p081a3fe525)" d="M 1029.888 500.465583 
L 1029.888 507.54973 
" style="fill:none;stroke:#000000;stroke-linecap:square;"/>
   </g>
   <g id="line2d_50">
    <path clip-path="url(#p081a3fe525)" d="M 1029.888 479.69247 
L 1029.888 473.602219 
" style="fill:none;stroke:#000000;stroke-linecap:square;"/>
   </g>
   <g id="line2d_51">
    <path clip-path="url(#p081a3fe525)" d="M 1021.31712 507.54973 
L 1038.45888 507.54973 
" style="fill:none;stroke:#000000;stroke-linecap:square;"/>
   </g>
   <g id="line2d_52">
    <path clip-path="url(#p081a3fe525)" d="M 1021.31712 473.602219 
L 1038.45888 473.602219 
" style="fill:none;stroke:#000000;stroke-linecap:square;"/>
   </g>
   <g id="line2d_53">
    <g clip-path="url(#p081a3fe525)">
     <use style="fill-opacity:0;stroke:#000000;" x="1029.888" xlink:href="#m098d92a74c" y="425.162165"/>
    </g>
   </g>
   <g id="line2d_54">
    <path clip-path="url(#p081a3fe525)" d="M 301.3632 234.954599 
L 301.3632 237.717769 
" style="fill:none;stroke:#000000;stroke-linecap:square;"/>
   </g>
   <g id="line2d_55">
    <path clip-path="url(#p081a3fe525)" d="M 301.3632 232.19143 
L 301.3632 231.599322 
" style="fill:none;stroke:#000000;stroke-linecap:square;"/>
   </g>
   <g id="line2d_56">
    <path clip-path="url(#p081a3fe525)" d="M 292.79232 237.717769 
L 309.93408 237.717769 
" style="fill:none;stroke:#000000;stroke-linecap:square;"/>
   </g>
   <g id="line2d_57">
    <path clip-path="url(#p081a3fe525)" d="M 292.79232 231.599322 
L 309.93408 231.599322 
" style="fill:none;stroke:#000000;stroke-linecap:square;"/>
   </g>
   <g id="line2d_58">
    <g clip-path="url(#p081a3fe525)">
     <use style="fill-opacity:0;stroke:#000000;" x="301.3632" xlink:href="#m098d92a74c" y="220.180101"/>
    </g>
   </g>
   <g id="line2d_59">
    <path clip-path="url(#p081a3fe525)" d="M 558.4896 245.824006 
L 558.4896 247.036417 
" style="fill:none;stroke:#000000;stroke-linecap:square;"/>
   </g>
   <g id="line2d_60">
    <path clip-path="url(#p081a3fe525)" d="M 558.4896 244.378981 
L 558.4896 244.118172 
" style="fill:none;stroke:#000000;stroke-linecap:square;"/>
   </g>
   <g id="line2d_61">
    <path clip-path="url(#p081a3fe525)" d="M 549.91872 247.036417 
L 567.06048 247.036417 
" style="fill:none;stroke:#000000;stroke-linecap:square;"/>
   </g>
   <g id="line2d_62">
    <path clip-path="url(#p081a3fe525)" d="M 549.91872 244.118172 
L 567.06048 244.118172 
" style="fill:none;stroke:#000000;stroke-linecap:square;"/>
   </g>
   <g id="line2d_63">
    <g clip-path="url(#p081a3fe525)">
     <use style="fill-opacity:0;stroke:#000000;" x="558.4896" xlink:href="#m098d92a74c" y="238.591832"/>
    </g>
   </g>
   <g id="line2d_64">
    <path clip-path="url(#p081a3fe525)" d="M 815.616 292.769692 
L 815.616 292.924768 
" style="fill:none;stroke:#000000;stroke-linecap:square;"/>
   </g>
   <g id="line2d_65">
    <path clip-path="url(#p081a3fe525)" d="M 815.616 287.377282 
L 815.616 284.240521 
" style="fill:none;stroke:#000000;stroke-linecap:square;"/>
   </g>
   <g id="line2d_66">
    <path clip-path="url(#p081a3fe525)" d="M 807.04512 292.924768 
L 824.18688 292.924768 
" style="fill:none;stroke:#000000;stroke-linecap:square;"/>
   </g>
   <g id="line2d_67">
    <path clip-path="url(#p081a3fe525)" d="M 807.04512 284.240521 
L 824.18688 284.240521 
" style="fill:none;stroke:#000000;stroke-linecap:square;"/>
   </g>
   <g id="line2d_68">
    <g clip-path="url(#p081a3fe525)">
     <use style="fill-opacity:0;stroke:#000000;" x="815.616" xlink:href="#m098d92a74c" y="309.221829"/>
    </g>
   </g>
   <g id="line2d_69">
    <path clip-path="url(#p081a3fe525)" d="M 1072.7424 327.267017 
L 1072.7424 328.704993 
" style="fill:none;stroke:#000000;stroke-linecap:square;"/>
   </g>
   <g id="line2d_70">
    <path clip-path="url(#p081a3fe525)" d="M 1072.7424 317.94132 
L 1072.7424 311.703042 
" style="fill:none;stroke:#000000;stroke-linecap:square;"/>
   </g>
   <g id="line2d_71">
    <path clip-path="url(#p081a3fe525)" d="M 1064.17152 328.704993 
L 1081.31328 328.704993 
" style="fill:none;stroke:#000000;stroke-linecap:square;"/>
   </g>
   <g id="line2d_72">
    <path clip-path="url(#p081a3fe525)" d="M 1064.17152 311.703042 
L 1081.31328 311.703042 
" style="fill:none;stroke:#000000;stroke-linecap:square;"/>
   </g>
   <g id="line2d_73">
    <g clip-path="url(#p081a3fe525)">
     <use style="fill-opacity:0;stroke:#000000;" x="1072.7424" xlink:href="#m098d92a74c" y="359.043467"/>
    </g>
   </g>
   <g id="line2d_74">
    <path clip-path="url(#p081a3fe525)" d="M 344.2176 233.093689 
L 344.2176 238.267583 
" style="fill:none;stroke:#000000;stroke-linecap:square;"/>
   </g>
   <g id="line2d_75">
    <path clip-path="url(#p081a3fe525)" d="M 344.2176 215.915515 
L 344.2176 214.456393 
" style="fill:none;stroke:#000000;stroke-linecap:square;"/>
   </g>
   <g id="line2d_76">
    <path clip-path="url(#p081a3fe525)" d="M 335.64672 238.267583 
L 352.78848 238.267583 
" style="fill:none;stroke:#000000;stroke-linecap:square;"/>
   </g>
   <g id="line2d_77">
    <path clip-path="url(#p081a3fe525)" d="M 335.64672 214.456393 
L 352.78848 214.456393 
" style="fill:none;stroke:#000000;stroke-linecap:square;"/>
   </g>
   <g id="line2d_78">
    <g clip-path="url(#p081a3fe525)">
     <use style="fill-opacity:0;stroke:#000000;" x="344.2176" xlink:href="#m098d92a74c" y="184.569049"/>
    </g>
   </g>
   <g id="line2d_79">
    <path clip-path="url(#p081a3fe525)" d="M 601.344 244.823062 
L 601.344 247.304275 
" style="fill:none;stroke:#000000;stroke-linecap:square;"/>
   </g>
   <g id="line2d_80">
    <path clip-path="url(#p081a3fe525)" d="M 601.344 236.300939 
L 601.344 235.518511 
" style="fill:none;stroke:#000000;stroke-linecap:square;"/>
   </g>
   <g id="line2d_81">
    <path clip-path="url(#p081a3fe525)" d="M 592.77312 247.304275 
L 609.91488 247.304275 
" style="fill:none;stroke:#000000;stroke-linecap:square;"/>
   </g>
   <g id="line2d_82">
    <path clip-path="url(#p081a3fe525)" d="M 592.77312 235.518511 
L 609.91488 235.518511 
" style="fill:none;stroke:#000000;stroke-linecap:square;"/>
   </g>
   <g id="line2d_83">
    <g clip-path="url(#p081a3fe525)">
     <use style="fill-opacity:0;stroke:#000000;" x="601.344" xlink:href="#m098d92a74c" y="220.744013"/>
    </g>
   </g>
   <g id="line2d_84">
    <path clip-path="url(#p081a3fe525)" d="M 858.4704 315.31208 
L 858.4704 317.342163 
" style="fill:none;stroke:#000000;stroke-linecap:square;"/>
   </g>
   <g id="line2d_85">
    <path clip-path="url(#p081a3fe525)" d="M 858.4704 290.626826 
L 858.4704 282.999914 
" style="fill:none;stroke:#000000;stroke-linecap:square;"/>
   </g>
   <g id="line2d_86">
    <path clip-path="url(#p081a3fe525)" d="M 849.89952 317.342163 
L 867.04128 317.342163 
" style="fill:none;stroke:#000000;stroke-linecap:square;"/>
   </g>
   <g id="line2d_87">
    <path clip-path="url(#p081a3fe525)" d="M 849.89952 282.999914 
L 867.04128 282.999914 
" style="fill:none;stroke:#000000;stroke-linecap:square;"/>
   </g>
   <g id="line2d_88">
    <g clip-path="url(#p081a3fe525)">
     <use style="fill-opacity:0;stroke:#000000;" x="858.4704" xlink:href="#m098d92a74c" y="358.366772"/>
    </g>
   </g>
   <g id="line2d_89">
    <path clip-path="url(#p081a3fe525)" d="M 1115.5968 372.408184 
L 1115.5968 376.440156 
" style="fill:none;stroke:#000000;stroke-linecap:square;"/>
   </g>
   <g id="line2d_90">
    <path clip-path="url(#p081a3fe525)" d="M 1115.5968 324.172549 
L 1115.5968 309.503785 
" style="fill:none;stroke:#000000;stroke-linecap:square;"/>
   </g>
   <g id="line2d_91">
    <path clip-path="url(#p081a3fe525)" d="M 1107.02592 376.440156 
L 1124.16768 376.440156 
" style="fill:none;stroke:#000000;stroke-linecap:square;"/>
   </g>
   <g id="line2d_92">
    <path clip-path="url(#p081a3fe525)" d="M 1107.02592 309.503785 
L 1124.16768 309.503785 
" style="fill:none;stroke:#000000;stroke-linecap:square;"/>
   </g>
   <g id="line2d_93">
    <g clip-path="url(#p081a3fe525)">
     <use style="fill-opacity:0;stroke:#000000;" x="1115.5968" xlink:href="#m098d92a74c" y="452.963034"/>
    </g>
   </g>
   <g id="line2d_94">
    <path clip-path="url(#p081a3fe525)" d="M 387.072 179.352862 
L 387.072 187.670566 
" style="fill:none;stroke:#000000;stroke-linecap:square;"/>
   </g>
   <g id="line2d_95">
    <path clip-path="url(#p081a3fe525)" d="M 387.072 135.219688 
L 387.072 111.7116 
" style="fill:none;stroke:#000000;stroke-linecap:square;"/>
   </g>
   <g id="line2d_96">
    <path clip-path="url(#p081a3fe525)" d="M 378.50112 187.670566 
L 395.64288 187.670566 
" style="fill:none;stroke:#000000;stroke-linecap:square;"/>
   </g>
   <g id="line2d_97">
    <path clip-path="url(#p081a3fe525)" d="M 378.50112 111.7116 
L 395.64288 111.7116 
" style="fill:none;stroke:#000000;stroke-linecap:square;"/>
   </g>
   <g id="line2d_98"/>
   <g id="line2d_99">
    <path clip-path="url(#p081a3fe525)" d="M 644.1984 218.798516 
L 644.1984 222.069207 
" style="fill:none;stroke:#000000;stroke-linecap:square;"/>
   </g>
   <g id="line2d_100">
    <path clip-path="url(#p081a3fe525)" d="M 644.1984 196.333666 
L 644.1984 184.343484 
" style="fill:none;stroke:#000000;stroke-linecap:square;"/>
   </g>
   <g id="line2d_101">
    <path clip-path="url(#p081a3fe525)" d="M 635.62752 222.069207 
L 652.76928 222.069207 
" style="fill:none;stroke:#000000;stroke-linecap:square;"/>
   </g>
   <g id="line2d_102">
    <path clip-path="url(#p081a3fe525)" d="M 635.62752 184.343484 
L 652.76928 184.343484 
" style="fill:none;stroke:#000000;stroke-linecap:square;"/>
   </g>
   <g id="line2d_103"/>
   <g id="line2d_104">
    <path clip-path="url(#p081a3fe525)" d="M 901.3248 423.378793 
L 901.3248 452.004384 
" style="fill:none;stroke:#000000;stroke-linecap:square;"/>
   </g>
   <g id="line2d_105">
    <path clip-path="url(#p081a3fe525)" d="M 901.3248 364.259654 
L 901.3248 352.953215 
" style="fill:none;stroke:#000000;stroke-linecap:square;"/>
   </g>
   <g id="line2d_106">
    <path clip-path="url(#p081a3fe525)" d="M 892.75392 452.004384 
L 909.89568 452.004384 
" style="fill:none;stroke:#000000;stroke-linecap:square;"/>
   </g>
   <g id="line2d_107">
    <path clip-path="url(#p081a3fe525)" d="M 892.75392 352.953215 
L 909.89568 352.953215 
" style="fill:none;stroke:#000000;stroke-linecap:square;"/>
   </g>
   <g id="line2d_108"/>
   <g id="line2d_109">
    <path clip-path="url(#p081a3fe525)" d="M 1158.4512 571.180166 
L 1158.4512 616.2156 
" style="fill:none;stroke:#000000;stroke-linecap:square;"/>
   </g>
   <g id="line2d_110">
    <path clip-path="url(#p081a3fe525)" d="M 1158.4512 466.828224 
L 1158.4512 445.998719 
" style="fill:none;stroke:#000000;stroke-linecap:square;"/>
   </g>
   <g id="line2d_111">
    <path clip-path="url(#p081a3fe525)" d="M 1149.88032 616.2156 
L 1167.02208 616.2156 
" style="fill:none;stroke:#000000;stroke-linecap:square;"/>
   </g>
   <g id="line2d_112">
    <path clip-path="url(#p081a3fe525)" d="M 1149.88032 445.998719 
L 1167.02208 445.998719 
" style="fill:none;stroke:#000000;stroke-linecap:square;"/>
   </g>
   <g id="line2d_113"/>
   <g id="line2d_114">
    <path clip-path="url(#p081a3fe525)" d="M 687.0528 256.383261 
L 687.0528 256.411456 
" style="fill:none;stroke:#000000;stroke-linecap:square;"/>
   </g>
   <g id="line2d_115">
    <path clip-path="url(#p081a3fe525)" d="M 687.0528 256.316296 
L 687.0528 256.270478 
" style="fill:none;stroke:#000000;stroke-linecap:square;"/>
   </g>
   <g id="line2d_116">
    <path clip-path="url(#p081a3fe525)" d="M 678.48192 256.411456 
L 695.62368 256.411456 
" style="fill:none;stroke:#000000;stroke-linecap:square;"/>
   </g>
   <g id="line2d_117">
    <path clip-path="url(#p081a3fe525)" d="M 678.48192 256.270478 
L 695.62368 256.270478 
" style="fill:none;stroke:#000000;stroke-linecap:square;"/>
   </g>
   <g id="line2d_118"/>
   <g id="patch_3">
    <path clip-path="url(#p081a3fe525)" d="M 198.51264 214.822936 
L 232.79616 214.822936 
L 232.79616 207.978452 
L 198.51264 207.978452 
L 198.51264 214.822936 
z
" style="fill:#ffff00;stroke:#000000;stroke-linejoin:miter;"/>
   </g>
   <g id="patch_4">
    <path clip-path="url(#p081a3fe525)" d="M 455.63904 236.033081 
L 489.92256 236.033081 
L 489.92256 232.691902 
L 455.63904 232.691902 
L 455.63904 236.033081 
z
" style="fill:#ffff00;stroke:#000000;stroke-linejoin:miter;"/>
   </g>
   <g id="patch_5">
    <path clip-path="url(#p081a3fe525)" d="M 712.76544 321.92395 
L 747.04896 321.92395 
L 747.04896 313.422974 
L 712.76544 313.422974 
L 712.76544 321.92395 
z
" style="fill:#ffff00;stroke:#000000;stroke-linejoin:miter;"/>
   </g>
   <g id="patch_6">
    <path clip-path="url(#p081a3fe525)" d="M 969.89184 378.893174 
L 1004.17536 378.893174 
L 1004.17536 362.603162 
L 969.89184 362.603162 
L 969.89184 378.893174 
z
" style="fill:#ffff00;stroke:#000000;stroke-linejoin:miter;"/>
   </g>
   <g id="patch_7">
    <path clip-path="url(#p081a3fe525)" d="M 241.36704 166.629594 
L 275.65056 166.629594 
L 275.65056 155.478231 
L 241.36704 155.478231 
L 241.36704 166.629594 
z
" style="fill:#ffc0cb;stroke:#000000;stroke-linejoin:miter;"/>
   </g>
   <g id="patch_8">
    <path clip-path="url(#p081a3fe525)" d="M 498.49344 212.701216 
L 532.77696 212.701216 
L 532.77696 207.125535 
L 498.49344 207.125535 
L 498.49344 212.701216 
z
" style="fill:#ffc0cb;stroke:#000000;stroke-linejoin:miter;"/>
   </g>
   <g id="patch_9">
    <path clip-path="url(#p081a3fe525)" d="M 755.61984 389.388989 
L 789.90336 389.388989 
L 789.90336 375.601337 
L 755.61984 375.601337 
L 755.61984 389.388989 
z
" style="fill:#ffc0cb;stroke:#000000;stroke-linejoin:miter;"/>
   </g>
   <g id="patch_10">
    <path clip-path="url(#p081a3fe525)" d="M 1012.74624 500.465583 
L 1047.02976 500.465583 
L 1047.02976 479.69247 
L 1012.74624 479.69247 
L 1012.74624 500.465583 
z
" style="fill:#ffc0cb;stroke:#000000;stroke-linejoin:miter;"/>
   </g>
   <g id="patch_11">
    <path clip-path="url(#p081a3fe525)" d="M 284.22144 234.954599 
L 318.50496 234.954599 
L 318.50496 232.19143 
L 284.22144 232.19143 
L 284.22144 234.954599 
z
" style="fill:#008000;stroke:#000000;stroke-linejoin:miter;"/>
   </g>
   <g id="patch_12">
    <path clip-path="url(#p081a3fe525)" d="M 541.34784 245.824006 
L 575.63136 245.824006 
L 575.63136 244.378981 
L 541.34784 244.378981 
L 541.34784 245.824006 
z
" style="fill:#008000;stroke:#000000;stroke-linejoin:miter;"/>
   </g>
   <g id="patch_13">
    <path clip-path="url(#p081a3fe525)" d="M 798.47424 292.769692 
L 832.75776 292.769692 
L 832.75776 287.377282 
L 798.47424 287.377282 
L 798.47424 292.769692 
z
" style="fill:#008000;stroke:#000000;stroke-linejoin:miter;"/>
   </g>
   <g id="patch_14">
    <path clip-path="url(#p081a3fe525)" d="M 1055.60064 327.267017 
L 1089.88416 327.267017 
L 1089.88416 317.94132 
L 1055.60064 317.94132 
L 1055.60064 327.267017 
z
" style="fill:#008000;stroke:#000000;stroke-linejoin:miter;"/>
   </g>
   <g id="patch_15">
    <path clip-path="url(#p081a3fe525)" d="M 327.07584 233.093689 
L 361.35936 233.093689 
L 361.35936 215.915515 
L 327.07584 215.915515 
L 327.07584 233.093689 
z
" style="fill:#0000ff;stroke:#000000;stroke-linejoin:miter;"/>
   </g>
   <g id="patch_16">
    <path clip-path="url(#p081a3fe525)" d="M 584.20224 244.823062 
L 618.48576 244.823062 
L 618.48576 236.300939 
L 584.20224 236.300939 
L 584.20224 244.823062 
z
" style="fill:#0000ff;stroke:#000000;stroke-linejoin:miter;"/>
   </g>
   <g id="patch_17">
    <path clip-path="url(#p081a3fe525)" d="M 841.32864 315.31208 
L 875.61216 315.31208 
L 875.61216 290.626826 
L 841.32864 290.626826 
L 841.32864 315.31208 
z
" style="fill:#0000ff;stroke:#000000;stroke-linejoin:miter;"/>
   </g>
   <g id="patch_18">
    <path clip-path="url(#p081a3fe525)" d="M 1098.45504 372.408184 
L 1132.73856 372.408184 
L 1132.73856 324.172549 
L 1098.45504 324.172549 
L 1098.45504 372.408184 
z
" style="fill:#0000ff;stroke:#000000;stroke-linejoin:miter;"/>
   </g>
   <g id="patch_19">
    <path clip-path="url(#p081a3fe525)" d="M 369.93024 179.352862 
L 404.21376 179.352862 
L 404.21376 135.219688 
L 369.93024 135.219688 
L 369.93024 179.352862 
z
" style="fill:#ff0000;stroke:#000000;stroke-linejoin:miter;"/>
   </g>
   <g id="patch_20">
    <path clip-path="url(#p081a3fe525)" d="M 627.05664 218.798516 
L 661.34016 218.798516 
L 661.34016 196.333666 
L 627.05664 196.333666 
L 627.05664 218.798516 
z
" style="fill:#ff0000;stroke:#000000;stroke-linejoin:miter;"/>
   </g>
   <g id="patch_21">
    <path clip-path="url(#p081a3fe525)" d="M 884.18304 423.378793 
L 918.46656 423.378793 
L 918.46656 364.259654 
L 884.18304 364.259654 
L 884.18304 423.378793 
z
" style="fill:#ff0000;stroke:#000000;stroke-linejoin:miter;"/>
   </g>
   <g id="patch_22">
    <path clip-path="url(#p081a3fe525)" d="M 1141.30944 571.180166 
L 1175.59296 571.180166 
L 1175.59296 466.828224 
L 1141.30944 466.828224 
L 1141.30944 571.180166 
z
" style="fill:#ff0000;stroke:#000000;stroke-linejoin:miter;"/>
   </g>
   <g id="patch_23">
    <path clip-path="url(#p081a3fe525)" d="M 669.91104 256.383261 
L 704.19456 256.383261 
L 704.19456 256.316296 
L 669.91104 256.316296 
L 669.91104 256.383261 
z
" style="fill:#1f77b4;stroke:#000000;stroke-linejoin:miter;"/>
   </g>
   <g id="line2d_119">
    <path clip-path="url(#p081a3fe525)" d="M 198.51264 211.749614 
L 232.79616 211.749614 
" style="fill:none;stroke:#ff7f0e;stroke-linecap:square;"/>
   </g>
   <g id="line2d_120">
    <path clip-path="url(#p081a3fe525)" d="M 455.63904 234.531665 
L 489.92256 234.531665 
" style="fill:none;stroke:#ff7f0e;stroke-linecap:square;"/>
   </g>
   <g id="line2d_121">
    <path clip-path="url(#p081a3fe525)" d="M 712.76544 315.410764 
L 747.04896 315.410764 
" style="fill:none;stroke:#ff7f0e;stroke-linecap:square;"/>
   </g>
   <g id="line2d_122">
    <path clip-path="url(#p081a3fe525)" d="M 969.89184 364.879957 
L 1004.17536 364.879957 
" style="fill:none;stroke:#ff7f0e;stroke-linecap:square;"/>
   </g>
   <g id="line2d_123">
    <path clip-path="url(#p081a3fe525)" d="M 241.36704 157.162919 
L 275.65056 157.162919 
" style="fill:none;stroke:#ff7f0e;stroke-linecap:square;"/>
   </g>
   <g id="line2d_124">
    <path clip-path="url(#p081a3fe525)" d="M 498.49344 207.576665 
L 532.77696 207.576665 
" style="fill:none;stroke:#ff7f0e;stroke-linecap:square;"/>
   </g>
   <g id="line2d_125">
    <path clip-path="url(#p081a3fe525)" d="M 755.61984 386.957118 
L 789.90336 386.957118 
" style="fill:none;stroke:#ff7f0e;stroke-linecap:square;"/>
   </g>
   <g id="line2d_126">
    <path clip-path="url(#p081a3fe525)" d="M 1012.74624 498.484842 
L 1047.02976 498.484842 
" style="fill:none;stroke:#ff7f0e;stroke-linecap:square;"/>
   </g>
   <g id="line2d_127">
    <path clip-path="url(#p081a3fe525)" d="M 284.22144 234.080535 
L 318.50496 234.080535 
" style="fill:none;stroke:#ff7f0e;stroke-linecap:square;"/>
   </g>
   <g id="line2d_128">
    <path clip-path="url(#p081a3fe525)" d="M 541.34784 245.260094 
L 575.63136 245.260094 
" style="fill:none;stroke:#ff7f0e;stroke-linecap:square;"/>
   </g>
   <g id="line2d_129">
    <path clip-path="url(#p081a3fe525)" d="M 798.47424 290.697315 
L 832.75776 290.697315 
" style="fill:none;stroke:#ff7f0e;stroke-linecap:square;"/>
   </g>
   <g id="line2d_130">
    <path clip-path="url(#p081a3fe525)" d="M 1055.60064 322.022634 
L 1089.88416 322.022634 
" style="fill:none;stroke:#ff7f0e;stroke-linecap:square;"/>
   </g>
   <g id="line2d_131">
    <path clip-path="url(#p081a3fe525)" d="M 327.07584 224.324855 
L 361.35936 224.324855 
" style="fill:none;stroke:#ff7f0e;stroke-linecap:square;"/>
   </g>
   <g id="line2d_132">
    <path clip-path="url(#p081a3fe525)" d="M 584.20224 240.636014 
L 618.48576 240.636014 
" style="fill:none;stroke:#ff7f0e;stroke-linecap:square;"/>
   </g>
   <g id="line2d_133">
    <path clip-path="url(#p081a3fe525)" d="M 841.32864 303.202066 
L 875.61216 303.202066 
" style="fill:none;stroke:#ff7f0e;stroke-linecap:square;"/>
   </g>
   <g id="line2d_134">
    <path clip-path="url(#p081a3fe525)" d="M 1098.45504 348.681581 
L 1132.73856 348.681581 
" style="fill:none;stroke:#ff7f0e;stroke-linecap:square;"/>
   </g>
   <g id="line2d_135">
    <path clip-path="url(#p081a3fe525)" d="M 369.93024 169.371617 
L 404.21376 169.371617 
" style="fill:none;stroke:#ff7f0e;stroke-linecap:square;"/>
   </g>
   <g id="line2d_136">
    <path clip-path="url(#p081a3fe525)" d="M 627.05664 213.751503 
L 661.34016 213.751503 
" style="fill:none;stroke:#ff7f0e;stroke-linecap:square;"/>
   </g>
   <g id="line2d_137">
    <path clip-path="url(#p081a3fe525)" d="M 884.18304 377.102753 
L 918.46656 377.102753 
" style="fill:none;stroke:#ff7f0e;stroke-linecap:square;"/>
   </g>
   <g id="line2d_138">
    <path clip-path="url(#p081a3fe525)" d="M 1141.30944 485.825014 
L 1175.59296 485.825014 
" style="fill:none;stroke:#ff7f0e;stroke-linecap:square;"/>
   </g>
   <g id="line2d_139">
    <path clip-path="url(#p081a3fe525)" d="M 669.91104 256.355065 
L 704.19456 256.355065 
" style="fill:none;stroke:#ff7f0e;stroke-linecap:square;"/>
   </g>
   <g id="patch_24">
    <path d="M 172.8 641.4408 
L 172.8 86.4864 
" style="fill:none;stroke:#000000;stroke-linecap:square;stroke-linejoin:miter;stroke-width:0.8;"/>
   </g>
   <g id="patch_25">
    <path d="M 1244.16 641.4408 
L 1244.16 86.4864 
" style="fill:none;stroke:#000000;stroke-linecap:square;stroke-linejoin:miter;stroke-width:0.8;"/>
   </g>
   <g id="patch_26">
    <path d="M 172.8 641.4408 
L 1244.16 641.4408 
" style="fill:none;stroke:#000000;stroke-linecap:square;stroke-linejoin:miter;stroke-width:0.8;"/>
   </g>
   <g id="patch_27">
    <path d="M 172.8 86.4864 
L 1244.16 86.4864 
" style="fill:none;stroke:#000000;stroke-linecap:square;stroke-linejoin:miter;stroke-width:0.8;"/>
   </g>
   <g id="text_16">
    <!-- Control -->
    <g transform="translate(664.317175 245.207987)scale(0.11 -0.11)">
     <defs>
      <path d="M 4288 256 
Q 3956 84 3597 -3 
Q 3238 -91 2847 -91 
Q 1681 -91 1000 561 
Q 319 1213 319 2328 
Q 319 3447 1000 4098 
Q 1681 4750 2847 4750 
Q 3238 4750 3597 4662 
Q 3956 4575 4288 4403 
L 4288 3438 
Q 3953 3666 3628 3772 
Q 3303 3878 2944 3878 
Q 2300 3878 1931 3465 
Q 1563 3053 1563 2328 
Q 1563 1606 1931 1193 
Q 2300 781 2944 781 
Q 3303 781 3628 887 
Q 3953 994 4288 1222 
L 4288 256 
z
" id="DejaVuSans-Bold-43" transform="scale(0.015625)"/>
      <path d="M 2203 2784 
Q 1831 2784 1636 2517 
Q 1441 2250 1441 1747 
Q 1441 1244 1636 976 
Q 1831 709 2203 709 
Q 2569 709 2762 976 
Q 2956 1244 2956 1747 
Q 2956 2250 2762 2517 
Q 2569 2784 2203 2784 
z
M 2203 3584 
Q 3106 3584 3614 3096 
Q 4122 2609 4122 1747 
Q 4122 884 3614 396 
Q 3106 -91 2203 -91 
Q 1297 -91 786 396 
Q 275 884 275 1747 
Q 275 2609 786 3096 
Q 1297 3584 2203 3584 
z
" id="DejaVuSans-Bold-6f" transform="scale(0.015625)"/>
      <path d="M 4056 2131 
L 4056 0 
L 2931 0 
L 2931 347 
L 2931 1631 
Q 2931 2084 2911 2256 
Q 2891 2428 2841 2509 
Q 2775 2619 2662 2680 
Q 2550 2741 2406 2741 
Q 2056 2741 1856 2470 
Q 1656 2200 1656 1722 
L 1656 0 
L 538 0 
L 538 3500 
L 1656 3500 
L 1656 2988 
Q 1909 3294 2193 3439 
Q 2478 3584 2822 3584 
Q 3428 3584 3742 3212 
Q 4056 2841 4056 2131 
z
" id="DejaVuSans-Bold-6e" transform="scale(0.015625)"/>
      <path d="M 1759 4494 
L 1759 3500 
L 2913 3500 
L 2913 2700 
L 1759 2700 
L 1759 1216 
Q 1759 972 1856 886 
Q 1953 800 2241 800 
L 2816 800 
L 2816 0 
L 1856 0 
Q 1194 0 917 276 
Q 641 553 641 1216 
L 641 2700 
L 84 2700 
L 84 3500 
L 641 3500 
L 641 4494 
L 1759 4494 
z
" id="DejaVuSans-Bold-74" transform="scale(0.015625)"/>
      <path d="M 3138 2547 
Q 2991 2616 2845 2648 
Q 2700 2681 2553 2681 
Q 2122 2681 1889 2404 
Q 1656 2128 1656 1613 
L 1656 0 
L 538 0 
L 538 3500 
L 1656 3500 
L 1656 2925 
Q 1872 3269 2151 3426 
Q 2431 3584 2822 3584 
Q 2878 3584 2943 3579 
Q 3009 3575 3134 3559 
L 3138 2547 
z
" id="DejaVuSans-Bold-72" transform="scale(0.015625)"/>
      <path d="M 538 4863 
L 1656 4863 
L 1656 0 
L 538 0 
L 538 4863 
z
" id="DejaVuSans-Bold-6c" transform="scale(0.015625)"/>
     </defs>
     <use xlink:href="#DejaVuSans-Bold-43"/>
     <use x="73.388672" xlink:href="#DejaVuSans-Bold-6f"/>
     <use x="142.089844" xlink:href="#DejaVuSans-Bold-6e"/>
     <use x="213.28125" xlink:href="#DejaVuSans-Bold-74"/>
     <use x="261.083984" xlink:href="#DejaVuSans-Bold-72"/>
     <use x="310.400391" xlink:href="#DejaVuSans-Bold-6f"/>
     <use x="379.101562" xlink:href="#DejaVuSans-Bold-6c"/>
    </g>
   </g>
   <g id="legend_1">
    <g id="patch_28">
     <path d="M 1190.838125 167.877025 
L 1237.16 167.877025 
Q 1239.16 167.877025 1239.16 165.877025 
L 1239.16 93.4864 
Q 1239.16 91.4864 1237.16 91.4864 
L 1190.838125 91.4864 
Q 1188.838125 91.4864 1188.838125 93.4864 
L 1188.838125 165.877025 
Q 1188.838125 167.877025 1190.838125 167.877025 
z
" style="fill:#ffffff;opacity:0.8;stroke:#cccccc;stroke-linejoin:miter;"/>
    </g>
    <g id="line2d_140">
     <path d="M 1192.838125 99.584838 
L 1212.838125 99.584838 
" style="fill:none;stroke:#ffff00;stroke-linecap:square;stroke-width:4;"/>
    </g>
    <g id="line2d_141"/>
    <g id="text_17">
     <!-- NA -->
     <g transform="translate(1220.838125 103.084838)scale(0.1 -0.1)">
      <defs>
       <path d="M 628 4666 
L 1478 4666 
L 3547 763 
L 3547 4666 
L 4159 4666 
L 4159 0 
L 3309 0 
L 1241 3903 
L 1241 0 
L 628 0 
L 628 4666 
z
" id="DejaVuSans-4e" transform="scale(0.015625)"/>
      </defs>
      <use xlink:href="#DejaVuSans-4e"/>
      <use x="74.804688" xlink:href="#DejaVuSans-41"/>
     </g>
    </g>
    <g id="line2d_142">
     <path d="M 1192.838125 114.262963 
L 1212.838125 114.262963 
" style="fill:none;stroke:#ffc0cb;stroke-linecap:square;stroke-width:3;"/>
    </g>
    <g id="line2d_143"/>
    <g id="text_18">
     <!-- NP -->
     <g transform="translate(1220.838125 117.762963)scale(0.1 -0.1)">
      <defs>
       <path d="M 1259 4147 
L 1259 2394 
L 2053 2394 
Q 2494 2394 2734 2622 
Q 2975 2850 2975 3272 
Q 2975 3691 2734 3919 
Q 2494 4147 2053 4147 
L 1259 4147 
z
M 628 4666 
L 2053 4666 
Q 2838 4666 3239 4311 
Q 3641 3956 3641 3272 
Q 3641 2581 3239 2228 
Q 2838 1875 2053 1875 
L 1259 1875 
L 1259 0 
L 628 0 
L 628 4666 
z
" id="DejaVuSans-50" transform="scale(0.015625)"/>
      </defs>
      <use xlink:href="#DejaVuSans-4e"/>
      <use x="74.804688" xlink:href="#DejaVuSans-50"/>
     </g>
    </g>
    <g id="line2d_144">
     <path d="M 1192.838125 128.941088 
L 1212.838125 128.941088 
" style="fill:none;stroke:#008000;stroke-linecap:square;stroke-width:3;"/>
    </g>
    <g id="line2d_145"/>
    <g id="text_19">
     <!-- CP -->
     <g transform="translate(1220.838125 132.441088)scale(0.1 -0.1)">
      <use xlink:href="#DejaVuSans-43"/>
      <use x="69.824219" xlink:href="#DejaVuSans-50"/>
     </g>
    </g>
    <g id="line2d_146">
     <path d="M 1192.838125 143.619213 
L 1212.838125 143.619213 
" style="fill:none;stroke:#0000ff;stroke-linecap:square;stroke-width:3;"/>
    </g>
    <g id="line2d_147"/>
    <g id="text_20">
     <!-- SP -->
     <g transform="translate(1220.838125 147.119213)scale(0.1 -0.1)">
      <defs>
       <path d="M 3425 4513 
L 3425 3897 
Q 3066 4069 2747 4153 
Q 2428 4238 2131 4238 
Q 1616 4238 1336 4038 
Q 1056 3838 1056 3469 
Q 1056 3159 1242 3001 
Q 1428 2844 1947 2747 
L 2328 2669 
Q 3034 2534 3370 2195 
Q 3706 1856 3706 1288 
Q 3706 609 3251 259 
Q 2797 -91 1919 -91 
Q 1588 -91 1214 -16 
Q 841 59 441 206 
L 441 856 
Q 825 641 1194 531 
Q 1563 422 1919 422 
Q 2459 422 2753 634 
Q 3047 847 3047 1241 
Q 3047 1584 2836 1778 
Q 2625 1972 2144 2069 
L 1759 2144 
Q 1053 2284 737 2584 
Q 422 2884 422 3419 
Q 422 4038 858 4394 
Q 1294 4750 2059 4750 
Q 2388 4750 2728 4690 
Q 3069 4631 3425 4513 
z
" id="DejaVuSans-53" transform="scale(0.015625)"/>
      </defs>
      <use xlink:href="#DejaVuSans-53"/>
      <use x="63.476562" xlink:href="#DejaVuSans-50"/>
     </g>
    </g>
    <g id="line2d_148">
     <path d="M 1192.838125 158.297338 
L 1212.838125 158.297338 
" style="fill:none;stroke:#ff0000;stroke-linecap:square;stroke-width:3;"/>
    </g>
    <g id="line2d_149"/>
    <g id="text_21">
     <!-- SA -->
     <g transform="translate(1220.838125 161.797338)scale(0.1 -0.1)">
      <use xlink:href="#DejaVuSans-53"/>
      <use x="65.351562" xlink:href="#DejaVuSans-41"/>
     </g>
    </g>
   </g>
  </g>
 </g>
 <defs>
  <clipPath id="p081a3fe525">
   <rect height="554.9544" width="1071.36" x="172.8" y="86.4864"/>
  </clipPath>
 </defs>
</svg>
